<svg xmlns="http://www.w3.org/2000/svg" viewBox="0 0 32 32">
  <defs>
    <linearGradient id="g" x1="0%" y1="0%" x2="100%" y2="100%">
      <stop offset="0%" stop-color="#00f5ff"/>
      <stop offset="100%" stop-color="#7b2fff"/>
    </linearGradient>
  </defs>
  <!-- Left horn -->
  <polyline points="11,10 7,1 13,7" fill="none" stroke="url(#g)" stroke-width="1.4" stroke-linejoin="round"/>
  <!-- Right horn -->
  <polyline points="21,10 25,1 19,7" fill="none" stroke="url(#g)" stroke-width="1.4" stroke-linejoin="round"/>
  <!-- Head -->
  <path d="M8,11 L12,7 L20,7 L24,11 L26,17 L24,23 L20,28 L16,30 L12,28 L8,23 L6,17 Z" fill="#050810" stroke="url(#g)" stroke-width="1.5"/>
  <!-- Left eye -->
  <polygon points="9,17 12,14 15,17 12,20" fill="#00f5ff"/>
  <!-- Right eye -->
  <polygon points="17,17 20,14 23,17 20,20" fill="#7b2fff"/>
  <!-- Nose bridge -->
  <path d="M14,21 L16,23 L18,21" fill="none" stroke="url(#g)" stroke-width="1"/>
</svg>
